<?xml version="1.0" standalone="no"?>
<!DOCTYPE svg PUBLIC "-//W3C//DTD SVG 20010904//EN"
 "http://www.w3.org/TR/2001/REC-SVG-20010904/DTD/svg10.dtd">
<svg version="1.0" xmlns="http://www.w3.org/2000/svg"
 width="450.000000pt" height="450.000000pt" viewBox="0 0 450.000000 450.000000"
 preserveAspectRatio="xMidYMid meet">
<metadata>
Created by potrace 1.14, written by Peter Selinger 2001-2017
</metadata>
<g transform="translate(0.000000,450.000000) scale(0.100000,-0.100000)"
fill="#000000" stroke="none">
<path d="M1893 3749 c-127 -15 -195 -35 -298 -86 -205 -101 -330 -223 -505
-493 -21 -33 -103 -223 -105 -245 -1 -5 -8 -32 -17 -60 -9 -27 -19 -63 -22
-80 -4 -16 -9 -41 -11 -55 -25 -124 -24 -405 2 -509 15 -61 8 -97 -43 -206
-15 -33 -28 -62 -29 -65 -1 -3 -16 -36 -34 -75 -92 -196 -103 -228 -90 -263
19 -51 35 -57 160 -61 65 -1 138 2 165 8 27 6 59 14 72 16 12 3 32 7 45 10 12
2 43 9 69 16 45 10 50 9 91 -20 24 -16 78 -46 119 -65 73 -34 85 -47 97 -101
2 -5 23 -50 49 -100 99 -192 237 -335 425 -439 26 -15 47 -24 47 -21 0 3 10
-1 23 -9 77 -49 312 -82 444 -62 23 4 55 9 70 11 15 2 39 6 53 9 14 3 36 8 50
11 14 3 34 7 46 9 35 7 178 57 199 71 17 10 33 8 100 -12 44 -14 107 -33 140
-43 33 -10 113 -35 178 -54 147 -46 184 -49 272 -23 80 24 95 36 104 80 11 48
-9 99 -111 294 -143 274 -149 288 -152 324 -1 19 4 54 11 79 7 25 15 54 18 65
31 156 38 208 38 315 2 312 -105 588 -308 794 -72 74 -204 169 -277 199 -28
12 -37 22 -43 49 -11 56 -46 150 -83 223 -105 211 -233 330 -518 481 -132 70
-293 100 -441 83z"/>
</g>
</svg>
